# xmcd
#
# Track frame offsets:
#	150
#	20475
#	37350
#	57450
#	77850
#	95325
#	109877
#	125695
#	148645
#	163720
#	181795
#	201820
#	218470
#	235495
#	255295
#	271549
#
# Disc length: 3833
#
# Revision: 2
# Processed by: cddbd v1.5.1PL0 Copyright (c) Steve Scherf et al.
# Submitted via: audiograbber 1.83.01
# Normalized: r1:TSWAP
#
DISCID=df0ef710
DTITLE=Sybersound Party Tyme Country Hits - SYB1081
DYEAR=2003
DGENRE=KARAOKE
TTITLE0=Shania Twain - Man I feel Like A Woman
TTITLE1=Toby Keith - How do you Like Me now
TTITLE2=Faith Hill - Breathe
TTITLE3=Lonestar - Amazed
TTITLE4=Dixie Chicks - Ready to Run
TTITLE5=Brad Paisley - Wrapped Around
TTITLE6=LeAnn Rimes - Big Deal
TTITLE7=Tim McGraw - My Best Friend
TTITLE8=Martina McBride - I Love You
TTITLE9=Kenny Rogers - Buy Me A Rose
TTITLE10=Dixie Chicks - Cowboy Take Me Away
TTITLE11=Chad Brock - Yes
TTITLE12=LeAnn Rimes - I Need You
TTITLE13=Clay Walker - Chain Of Love
TTITLE14=Shedaisy - This Woman Needs
TTITLE15=Alan Jackson - Pop A Top
EXTD=
EXTT0=
EXTT1=
EXTT2=
EXTT3=
EXTT4=
EXTT5=
EXTT6=
EXTT7=
EXTT8=
EXTT9=
EXTT10=
EXTT11=
EXTT12=
EXTT13=
EXTT14=
EXTT15=
PLAYORDER=
